:SAMPLES-PER-SECOND 30
:FULLY-SPECIFIED
:DEGREES
184
root  2.30648 19.661 -32.8062 49.0036 -6.54817 -9.44802
RightUpLeg  -51.0124 3.27353 13.7625
RightLeg  115.905 21.0884 -10.2229
RightFoot  -13.9729 -0.0045638 -7.50241
RightToes  5.82077e-011 -3.18055e-015 -2.98177e-016
Spine  49.0882 0.0267354 8.15716
Spine1  -12.3971 3.48419 2.1683
HEad  -27.1466 7.10846 1.39075
LeftShoulder1  -3.88251e-019 9.70628e-020 -3.87848e-018
LeftArm  -11.8335 -19.583 -53.7704
LeftForeArm  0.869477 -24.8686 4.39863
LeftHand  -7.28029 -10.3578 51.6106
RightShoulder  3.83798 10.0221 16.4169
RightArm  5.47319 13.3397 68.0297
RightForeArm  36.6299 8.73724 -5.18515
RightHand  -14.386 12.0545 -79.7386
LeftUpLeg  -42.3489 5.68473 -4.38098
LeftLeg  104.947 -16.701 10.5447
LeftFoot  -23.9982 -1.9732 -19.7848
LeftToes  1.39127e-010 -3.60802e-011 -7.31315e-011
185
root  2.38857 19.7132 -32.1966 47.1605 -4.58885 -9.7759
RightUpLeg  -54.0993 2.22808 16.3882
RightLeg  119.923 21.2544 -9.10608
RightFoot  -14.7765 -0.0866646 -9.83515
RightToes  5.82077e-011 -3.18055e-015 -2.98177e-016
Spine  51.6943 -0.420833 8.43808
Spine1  -13.3607 3.28713 4.60684
HEad  -27.4027 7.68496 0.720887
LeftShoulder1  -3.88251e-019 9.70628e-020 -3.87848e-018
LeftArm  -13.5638 -24.9675 -52.972
LeftForeArm  -0.329821 -20.0848 2.29279
LeftHand  -6.39032 -9.1781 49.435
RightShoulder  4.03613 10.0329 17.5486
RightArm  5.87483 12.7787 67.3948
RightForeArm  38.042 8.83609 -4.80111
RightHand  -14.5202 12.0864 -80.1653
LeftUpLeg  -38.698 4.48578 -2.46915
LeftLeg  103.338 -16.3801 10.4773
LeftFoot  -24.0611 -2.03714 -20.3174
LeftToes  1.39127e-010 -3.60802e-011 -7.31315e-011
186
root  2.44546 19.6668 -31.5965 46.5755 -3.4098 -9.79323
RightUpLeg  -58.5403 2.01325 18.3153
RightLeg  123.35 21.9076 -8.99323
RightFoot  -14.6294 -0.0987775 -11.7959
RightToes  5.82077e-011 -3.18055e-015 -2.98177e-016
Spine  52.8778 0.223686 7.50039
Spine1  -14.0271 3.42894 7.99233
HEad  -28.0286 7.73877 -0.445684
LeftShoulder1  -3.88251e-019 9.70628e-020 -3.87848e-018
LeftArm  -12.5797 -27.4285 -53.1723
LeftForeArm  -1.97231 -16.4212 0.802157
LeftHand  -6.53992 -8.52012 52.4856
RightShoulder  4.3211 10.0938 19.09
RightArm  6.60087 12.2537 65.855
RightForeArm  39.1959 9.38346 -4.2941
RightHand  -14.61 12.0724 -80.5626
LeftUpLeg  -36.212 3.54286 -1.70977
LeftLeg  101.543 -16.1782 10.9247
LeftFoot  -24.8086 -2.15539 -20.145
LeftToes  1.39127e-010 -3.60802e-011 -7.31315e-011
187
root  2.4723 19.5324 -30.994 46.9556 -2.85886 -9.27032
RightUpLeg  -63.8873 2.16752 19.418
RightLeg  126.102 23.2127 -9.83164
RightFoot  -13.6684 -0.00690604 -12.1749
RightToes  5.82077e-011 -3.18055e-015 -2.98177e-016
Spine  52.4043 1.51182 6.30092
Spine1  -13.8791 3.91535 11.2676
HEad  -28.556 6.38799 -1.96035
LeftShoulder1  -3.88251e-019 9.70628e-020 -3.87848e-018
LeftArm  -10.7432 -26.7433 -54.8502
LeftForeArm  -3.36232 -15.8766 0.260265
LeftHand  -7.32715 -8.67756 57.3039
RightShoulder  4.64441 10.2489 20.6713
RightArm  7.10265 11.831 63.0771
RightForeArm  40.32 9.96721 -4.03348
RightHand  -14.7585 12.0156 -81.3249
LeftUpLeg  -34.58 2.93215 -2.25408
LeftLeg  99.314 -16.101 12.2909
LeftFoot  -26.2246 -2.42911 -20.2415
LeftToes  1.39127e-010 -3.60802e-011 -7.31315e-011
188
root  2.48836 19.3902 -30.372 47.0573 -2.13225 -8.38519
RightUpLeg  -68.4484 2.08944 20.1538
RightLeg  127.899 24.4233 -10.6703
RightFoot  -12.7037 0.0886709 -11.1694
RightToes  5.82077e-011 -3.18055e-015 -2.98177e-016
Spine  51.3727 2.26077 6.16201
Spine1  -13.0522 4.38114 13.0882
HEad  -28.5178 3.86919 -2.97556
LeftShoulder1  -3.88251e-019 9.70628e-020 -3.87848e-018
LeftArm  -9.62492 -25.1423 -57.7868
LeftForeArm  -3.6097 -17.2065 0.253555
LeftHand  -8.0076 -9.09642 60.1947
RightShoulder  4.915 10.4515 21.8421
RightArm  6.89042 11.1667 59.5971
RightForeArm  41.2617 10.2016 -4.14117
RightHand  -15.008 11.9905 -82.369
LeftUpLeg  -32.6321 2.18903 -3.04389
LeftLeg  96.6598 -15.9148 14.0901
LeftFoot  -27.8288 -2.80211 -20.861
LeftToes  1.39127e-010 -3.60802e-011 -7.31315e-011
189
root  2.50308 19.288 -29.7114 46.1618 -0.999498 -7.54268
RightUpLeg  -71.068 1.88233 20.7645
RightLeg  128.609 24.9736 -11.0371
RightFoot  -11.6469 0.181314 -10.6982
RightToes  5.82077e-011 -3.18055e-015 -2.98177e-016
Spine  50.842 2.1406 6.98569
Spine1  -11.8783 4.56696 13.3445
HEad  -28.2232 1.39916 -3.06058
LeftShoulder1  -3.88251e-019 9.70628e-020 -3.87848e-018
LeftArm  -8.43115 -24.8825 -60.7918
LeftForeArm  -3.3288 -17.4535 -0.399659
LeftHand  -8.26571 -9.17995 61.4734
RightShoulder  5.11019 10.6288 22.6136
RightArm  6.30474 10.0079 56.3969
RightForeArm  41.7798 10.1803 -4.22487
RightHand  -15.2837 12.0849 -83.1097
LeftUpLeg  -29.5516 1.31666 -3.36651
LeftLeg  93.5286 -15.5729 16.5594
LeftFoot  -28.021 -2.68935 -19.7423
LeftToes  1.39127e-010 -3.60802e-011 -7.31315e-011
190
root  2.54167 19.2249 -28.993 44.0933 0.429909 -7.3236
RightUpLeg  -71.2937 1.61673 21.5816
RightLeg  128.389 25.0247 -11.1689
RightFoot  -8.87672 0.505067 -12.1691
RightToes  5.82077e-011 -3.18055e-015 -2.98177e-016
Spine  51.3248 1.51302 8.41159
Spine1  -10.5464 4.75285 12.8292
HEad  -28.2971 -0.616873 -3.00844
LeftShoulder1  -3.88251e-019 9.70628e-020 -3.87848e-018
LeftArm  -7.0682 -25.921 -63.5679
LeftForeArm  -2.62745 -15.5899 -1.92069
LeftHand  -8.48058 -9.06755 63.1744
RightShoulder  5.38697 10.7856 23.8373
RightArm  6.36528 8.95692 53.2355
RightForeArm  42.3237 10.2745 -3.72858
RightHand  -15.4523 12.246 -83.2204
LeftUpLeg  -25.1073 0.659029 -2.73866
LeftLeg  90.3922 -14.9058 18.334
LeftFoot  -27.9393 -2.66079 -19.6405
LeftToes  1.39127e-010 -3.60802e-011 -7.31315e-011
191
root  2.59332 19.1629 -28.2141 41.5308 2.0615 -7.77687
RightUpLeg  -69.7725 1.24635 22.7885
RightLeg  127.73 24.9398 -11.3099
RightFoot  -4.07014 1.08782 -13.7048
RightToes  5.82077e-011 -3.18055e-015 -2.98177e-016
Spine  52.2423 0.933253 10.2212
Spine1  -9.21786 5.32601 12.5049
HEad  -28.7567 -2.8701 -3.88879
LeftShoulder1  -3.88251e-019 9.70628e-020 -3.87848e-018
LeftArm  -5.92306 -26.3959 -66.945
LeftForeArm  -1.70409 -13.3265 -3.00143
LeftHand  -8.94618 -9.19876 65.4586
RightShoulder  5.89486 10.91 26.3251
RightArm  7.97546 8.88699 48.7542
RightForeArm  43.1365 11.0221 -2.28029
RightHand  -15.256 12.264 -82.4265
LeftUpLeg  -20.0161 0.23608 -1.18845
LeftLeg  87.3255 -14.0004 19.0276
LeftFoot  -28.0894 -2.79518 -20.4344
LeftToes  1.39127e-010 -3.60802e-011 -7.31315e-011
192
root  2.57341 18.9875 -27.4263 41.0455 3.71852 -8.12528
RightUpLeg  -69.6067 1.66977 24.077
RightLeg  127.105 25.1658 -11.795
RightFoot  0.421417 1.27025 -10.6719
RightToes  5.82077e-011 -3.18055e-015 -2.98177e-016
Spine  51.2636 0.823283 11.6972
Spine1  -8.56338 5.94693 12.6584
HEad  -28.8609 -5.36958 -5.41913
LeftShoulder1  -3.88251e-019 9.70628e-020 -3.87848e-018
LeftArm  -5.82372 -24.9922 -70.5025
LeftForeArm  0.197874 -12.3434 -3.34984
LeftHand  -9.55195 -9.57661 67.529
RightShoulder  6.20466 10.9149 27.9394
RightArm  11.7706 7.47653 43.8779
RightForeArm  41.7078 13.3861 -1.28806
RightHand  -14.3716 12.0247 -79.7551
LeftUpLeg  -17.1861 -0.254006 0.499278
LeftLeg  84.4566 -13.0767 19.2453
LeftFoot  -28.3824 -2.85067 -20.44
LeftToes  1.39127e-010 -3.60802e-011 -7.31315e-011
193
root  2.44413 18.6159 -26.635 44.0946 4.9376 -8.41857
RightUpLeg  -71.848 4.1389 25.4957
RightLeg  126.252 25.6492 -12.6871
RightFoot  4.017 1.44072 -9.56784
RightToes  5.82077e-011 -3.18055e-015 -2.98177e-016
Spine  46.4428 1.34619 12.3592
Spine1  -7.50075 6.16484 12.3225
HEad  -28.7543 -7.20712 -6.25734
LeftShoulder1  -3.88251e-019 9.70628e-020 -3.87848e-018
LeftArm  -5.59724 -23.1136 -72.7392
LeftForeArm  2.29918 -12.226 -3.86175
LeftHand  -10.1392 -9.94998 69.3634
RightShoulder  6.44098 10.8749 29.2457
RightArm  22.9218 4.98413 39.4221
RightForeArm  32.2661 17.2942 -3.04043
RightHand  -12.9053 11.6991 -74.7362
LeftUpLeg  -18.0674 -0.0619238 2.04021
LeftLeg  82.0524 -12.2866 19.2672
LeftFoot  -29.0126 -2.96025 -20.3874
LeftToes  1.39127e-010 -3.60802e-011 -7.31315e-011
194
root  2.22713 18.2687 -25.7817 46.8944 5.60009 -9.86449
RightUpLeg  -72.332 7.45447 27.87
RightLeg  124.25 26.1597 -14.1544
RightFoot  7.21416 2.01986 -11.3633
RightToes  5.82077e-011 -3.18055e-015 -2.98177e-016
Spine  42.0451 1.56572 13.1589
Spine1  -6.26352 6.25234 10.1591
HEad  -28.4313 -7.70166 -5.71263
LeftShoulder1  -3.88251e-019 9.70628e-020 -3.87848e-018
LeftArm  -4.37486 -21.3508 -72.6788
LeftForeArm  3.99303 -11.8665 -5.19902
LeftHand  -10.7053 -10.2566 71.2046
RightShoulder  6.52356 10.8593 29.704
RightArm  37.6776 0.422275 36.8237
RightForeArm  17.9879 20.8338 -9.14763
RightHand  -11.6844 11.6952 -69.3469
LeftUpLeg  -18.5314 1.57795 4.48496
LeftLeg  79.6044 -11.5274 18.7061
LeftFoot  -28.696 -2.84624 -19.9895
LeftToes  1.39127e-010 -3.60802e-011 -7.31315e-011
195
root  2.0225 18.0538 -24.8638 48.3689 6.2875 -12.9749
RightUpLeg  -70.6193 9.92437 31.4998
RightLeg  121.35 26.2904 -15.6875
RightFoot  10.0194 2.52883 -12.4789
RightToes  5.82077e-011 -3.18055e-015 -2.98177e-016
Spine  39.689 1.07232 15.5242
Spine1  -5.81207 6.73379 5.91088
HEad  -27.621 -7.17741 -4.80307
LeftShoulder1  -3.88251e-019 9.70628e-020 -3.87848e-018
LeftArm  -3.63448 -19.3706 -71.48
LeftForeArm  6.00702 -11.2736 -6.32429
LeftHand  -11.2017 -10.5221 72.7444
RightShoulder  6.50655 10.8439 29.6462
RightArm  40.9303 -5.10569 35.4931
RightForeArm  14.879 23.7457 -13.6843
RightHand  -11.4226 12.2009 -66.569
LeftUpLeg  -17.835 4.56208 8.44229
LeftLeg  77.6562 -11.1157 16.8993
LeftFoot  -26.9434 -2.48933 -19.6871
LeftToes  1.39127e-010 -3.60802e-011 -7.31315e-011
196
root  1.82031 17.8963 -23.9738 50.2202 6.01419 -15.8318
RightUpLeg  -69.0669 11.6423 33.5288
RightLeg  119.422 25.5404 -15.6427
RightFoot  11.2535 2.77704 -12.9891
RightToes  5.82077e-011 -3.18055e-015 -2.98177e-016
Spine  37.8997 1.32781 16.7772
Spine1  -6.38921 7.55083 2.24427
HEad  -26.6406 -6.36856 -4.79809
LeftShoulder1  -3.88251e-019 9.70628e-020 -3.87848e-018
LeftArm  -4.72602 -16.4534 -70.9573
LeftForeArm  8.69186 -11.1594 -5.9628
LeftHand  -11.5032 -10.7025 73.5708
RightShoulder  6.57131 10.8051 30.0584
RightArm  36.0357 -8.93075 34.1052
RightForeArm  18.1592 28.3023 -15.9531
RightHand  -11.7739 12.6674 -66.7861
LeftUpLeg  -18.0081 8.22343 11.2348
LeftLeg  76.8588 -11.2122 14.5646
LeftFoot  -23.6281 -1.95838 -20.3773
LeftToes  1.39127e-010 -3.60802e-011 -7.31315e-011
